<svg width="31" height="28" viewBox="0 0 31 28" fill="none" xmlns="http://www.w3.org/2000/svg">
<path id="Shape" d="M13.1998 27.8611C7.46298 27.726 5.50357 27.6045 4.29919 27.2871C3.48435 27.0763 2.77625 26.6081 2.25706 25.9291C1.85578 25.4152 1.53667 24.6311 1.28908 23.5432C1.07671 22.6369 0.993996 21.8829 0.876074 20.041C0.695557 15.8839 0.652523 12.4853 0.876074 8.68779C1.0605 6.5907 1.14992 4.10121 2.37498 2.64883C2.95342 1.9691 3.6263 1.53167 4.3819 1.35084C5.56225 1.06422 10.591 0.837646 15.7969 0.837646C20.9911 0.837646 26.0311 1.06422 27.2125 1.35084C28.1565 1.57742 29.0417 2.25643 29.5615 3.13201C30.6793 5.38062 30.6988 8.17674 30.8123 10.3639C30.8592 11.406 30.8592 17.3235 30.8123 18.3656C30.6357 21.8221 30.4937 23.0451 30.0924 24.313C29.8443 25.1136 29.6325 25.536 29.2659 26.0041C28.6909 26.7246 27.9578 27.2038 27.1645 27.3779C22.2 27.8554 17.9844 27.959 13.1998 27.8611ZM20.8022 13.972C18.0403 12.0843 15.3957 10.3339 12.6924 8.52197V19.3619C15.5371 17.3842 18.536 15.5723 20.814 13.957L20.8022 13.972Z" fill="black"/>
</svg>
