<svg width="112" height="77" viewBox="0 0 112 77" fill="none" xmlns="http://www.w3.org/2000/svg">
<path d="M35.182 77C77.448 77 100.569 47.3684 100.569 21.7169C100.569 20.8878 100.569 20.0467 100.527 19.2175C105.028 16.4604 108.913 13.0469 112 9.137C107.795 10.7056 103.339 11.7395 98.777 12.205C103.583 9.77452 107.182 5.95037 108.906 1.44334C104.391 3.70657 99.4491 5.29534 94.297 6.14009C90.8333 3.01893 86.2498 0.95126 81.2566 0.257348C76.2634 -0.436564 71.139 0.28201 66.6774 2.30177C62.2157 4.32152 58.6656 7.52974 56.5771 11.4295C54.4887 15.3292 53.9783 19.7028 55.125 23.8728C45.9882 23.4852 37.0497 21.4769 28.8893 17.9782C20.7289 14.4794 13.5288 9.56844 7.756 3.56368C4.82538 7.84633 3.93102 12.9122 5.25452 17.7325C6.57803 22.5528 10.0202 26.7663 14.882 29.5172C11.2388 29.4125 7.67565 28.5847 4.48 27.1007V27.3673C4.48628 31.8536 6.32315 36.2006 9.68012 39.6733C13.0371 43.1461 17.7082 45.5316 22.904 46.4267C20.9318 46.8864 18.8946 47.1156 16.849 47.1078C15.4069 47.1115 13.9677 46.9985 12.551 46.7702C14.0195 50.6322 16.8789 54.0088 20.7287 56.4272C24.5785 58.8455 29.2259 60.1844 34.02 60.2564C25.8759 65.6686 15.8158 68.6039 5.46 68.5897C3.63525 68.5962 1.81176 68.5072 0 68.3232C10.5106 73.9928 22.7171 77.0033 35.182 77Z" fill="black"/>
</svg>
