<svg width="31" height="34" viewBox="0 0 31 34" fill="none" xmlns="http://www.w3.org/2000/svg">
<g id="&#240;&#159;&#166;&#134; icon &#34;Flickr&#34;">
<path id="Vector" d="M27.781 0.673096H4.17591C2.39882 0.673096 0.957031 2.23129 0.957031 4.15185V29.6627C0.957031 31.5833 2.39882 33.1414 4.17591 33.1414H27.781C29.5581 33.1414 30.9999 31.5833 30.9999 29.6627V4.15185C30.9999 2.23129 29.5581 0.673096 27.781 0.673096ZM10.6472 21.4731C8.29338 21.4731 6.38888 19.4149 6.38888 16.871C6.38888 14.3272 8.29338 12.2689 10.6472 12.2689C13.001 12.2689 14.9055 14.3272 14.9055 16.871C14.9055 19.4149 13.001 21.4731 10.6472 21.4731ZM21.3097 21.4731C18.9559 21.4731 17.0514 19.4149 17.0514 16.871C17.0514 14.3272 18.9559 12.2689 21.3097 12.2689C23.6635 12.2689 25.568 14.3272 25.568 16.871C25.568 19.4149 23.6635 21.4731 21.3097 21.4731Z" fill="black"/>
</g>
</svg>
