<svg width="31" height="34" viewBox="0 0 31 34" fill="none" xmlns="http://www.w3.org/2000/svg">
<g id="&#240;&#159;&#166;&#134; icon &#34;facebook icon&#34;">
<path id="Vector" d="M30.829 23.7094C30.829 29.6186 27.5693 33.1414 22.1015 33.1414H20.314C19.4878 33.1414 18.8118 32.4109 18.8118 31.518V22.1509C18.8118 21.7126 19.1423 21.3392 19.5479 21.3392L22.1917 21.2905C22.402 21.2743 22.5822 21.1119 22.6273 20.8846L23.153 17.7839C23.1981 17.4917 22.9878 17.2157 22.7024 17.2157L19.5028 17.2644C19.0822 17.2644 18.7517 16.9073 18.7367 16.4689L18.6766 12.4916C18.6766 12.2318 18.8719 12.0046 19.1273 12.0046L22.7324 11.9396C22.9878 11.9396 23.1831 11.7286 23.1831 11.4526L23.123 7.55637C23.123 7.28039 22.9277 7.06936 22.6723 7.06936L18.6166 7.13431C16.123 7.18302 14.1402 9.39085 14.1852 12.0857L14.2603 16.5501C14.2754 17.0047 13.9449 17.3618 13.5243 17.3781L11.7217 17.4105C11.4664 17.4105 11.2711 17.6216 11.2711 17.8976L11.3162 20.982C11.3162 21.258 11.5114 21.4691 11.7668 21.4691L13.5694 21.4366C13.99 21.4366 14.3204 21.7938 14.3355 22.2321L14.4706 31.4856C14.4857 32.3947 13.8097 33.1414 12.9685 33.1414H9.51358C4.04578 33.1414 0.786133 29.6186 0.786133 23.6932V10.1052C0.786133 4.19591 4.04578 0.673096 9.51358 0.673096H22.1015C27.5693 0.673096 30.829 4.19591 30.829 10.1052V23.7094Z" fill="black"/>
</g>
</svg>
